HIERARCHY
ROOT root
{
	OFFSET 0.000000 0.000000 0.000000
	CHANNELS 6 Xposition Yposition Zposition Zrotation Yrotation Xrotation
	JOINT lhip
	{
		OFFSET 0.058581 -0.082280 -0.017664
		CHANNELS 3 Zrotation Yrotation Xrotation
		JOINT lknee
		{
			OFFSET 0.043451 -0.386469 0.008037
			CHANNELS 3 Zrotation Yrotation Xrotation
			JOINT lankle
			{
				OFFSET -0.014790 -0.426874 -0.037428
				CHANNELS 3 Zrotation Yrotation Xrotation
				JOINT ltoe
				{
					OFFSET 0.041054 -0.060286 0.122042
					CHANNELS 3 Zrotation Yrotation Xrotation
					End Site
					{
						OFFSET 0.000000 0.000000 0.000000
					}
				}
			}
		}
	}
	JOINT rhip
	{
		OFFSET -0.060310 -0.090513 -0.013543
		CHANNELS 3 Zrotation Yrotation Xrotation
		JOINT rknee
		{
			OFFSET -0.043257 -0.383688 -0.004843
			CHANNELS 3 Zrotation Yrotation Xrotation
			JOINT rankle
			{
				OFFSET 0.019056 -0.420046 -0.034562
				CHANNELS 3 Zrotation Yrotation Xrotation
				JOINT rtoe
				{
					OFFSET -0.034840 -0.062106 0.130323
					CHANNELS 3 Zrotation Yrotation Xrotation
					End Site
					{
						OFFSET 0.000000 0.000000 0.000000
					}
				}
			}
		}
	}
	JOINT lowerback
	{
		OFFSET 0.004439 0.124404 -0.038385
		CHANNELS 3 Zrotation Yrotation Xrotation
		JOINT upperback
		{
			OFFSET 0.004488 0.137956 0.026820
			CHANNELS 3 Zrotation Yrotation Xrotation
			JOINT chest
			{
				OFFSET -0.002265 0.056032 0.002855
				CHANNELS 3 Zrotation Yrotation Xrotation
				JOINT lowerneck
				{
					OFFSET -0.013390 0.211636 -0.033468
					CHANNELS 3 Zrotation Yrotation Xrotation
					JOINT upperneck
					{
						OFFSET 0.010113 0.088937 0.050410
						CHANNELS 3 Zrotation Yrotation Xrotation
						End Site
						{
							OFFSET 0.000000 0.000000 0.000000
						}
					}
				}
				JOINT lclavicle
				{
					OFFSET 0.071702 0.114000 -0.018898
					CHANNELS 3 Zrotation Yrotation Xrotation
					JOINT lshoulder
					{
						OFFSET 0.122921 0.045205 -0.019046
						CHANNELS 3 Zrotation Yrotation Xrotation
						JOINT lelbow
						{
							OFFSET 0.255332 -0.015649 -0.022946
							CHANNELS 3 Zrotation Yrotation Xrotation
							JOINT lwrist
							{
								OFFSET 0.265709 0.012698 -0.007375
								CHANNELS 3 Zrotation Yrotation Xrotation
								End Site
								{
									OFFSET 0.000000 0.000000 0.000000
								}
							}
						}
					}
				}
				JOINT rclavicle
				{
					OFFSET -0.082954 0.112472 -0.023707
					CHANNELS 3 Zrotation Yrotation Xrotation
					JOINT rshoulder
					{
						OFFSET -0.113228 0.046853 -0.008472
						CHANNELS 3 Zrotation Yrotation Xrotation
						JOINT relbow
						{
							OFFSET -0.260127 -0.014369 -0.031269
							CHANNELS 3 Zrotation Yrotation Xrotation
							JOINT rwrist
							{
								OFFSET -0.269108 0.006794 -0.006027
								CHANNELS 3 Zrotation Yrotation Xrotation
								End Site
								{
									OFFSET 0.000000 0.000000 0.000000
								}
							}
						}
					}
				}
			}
		}
	}
}
MOTION
Frames: 10
Frame Time: 0.033333
1.993657 0.181290 0.944714 -56.182488 -3.355564 90.042935 8.325037 1.176066 -19.197581 -4.172163 12.928427 59.126160 -0.211667 9.334215 -4.633022 0.000000 -0.000000 0.000000 1.335077 3.016290 -17.951415 1.668722 -0.272478 40.232182 -2.793621 -5.170443 -23.463331 0.000000 -0.000000 0.000000 -4.997828 0.909799 12.832604 0.474246 -0.912167 -4.005374 -2.246748 -0.605084 -0.568203 4.403944 -8.467004 -4.345926 7.235635 -14.415563 6.983153 -26.100262 3.705613 2.936966 -52.657644 -9.996507 8.701420 26.040054 -51.550598 -17.999734 -2.087229 -9.671392 -26.345976 24.872975 -0.756428 1.816242 60.378849 -0.937832 11.346011 -21.753109 33.492864 -2.984848 21.597075 0.986580 -7.040911 
1.981877 0.174581 0.952330 -61.094450 -3.975650 90.376105 7.339495 0.339792 -21.920618 -5.365842 13.307906 58.132313 -0.772191 8.558433 -4.735358 0.000000 -0.000000 0.000000 1.431200 3.315967 -16.233159 1.468130 3.187833 37.990680 -2.627132 -3.398610 -22.674759 0.000000 -0.000000 0.000000 -4.716616 1.825799 12.592101 -0.058200 -0.675196 -4.634553 -2.507179 -0.159511 -0.633371 4.019827 -8.731872 -5.184276 7.572088 -13.733226 6.184405 -26.602274 5.177896 2.606206 -53.290803 -8.578544 8.490871 26.569979 -50.234921 -19.290894 0.928368 -8.807533 -28.155166 24.557933 -1.498469 2.272732 59.332136 -1.758760 11.944411 -19.425265 34.601960 -0.694659 18.504943 1.831407 -8.253186 
1.970248 0.167146 0.959419 -66.322281 -4.618933 90.847902 6.622674 -1.151477 -24.612002 -5.775916 14.078874 55.615433 -0.820490 9.372788 -5.462560 0.000000 -0.000000 0.000000 1.063409 3.623483 -14.792955 1.669201 6.860439 36.063442 -2.149341 -1.823088 -22.038925 0.000000 -0.000000 0.000000 -4.428741 2.950594 12.284664 -0.616411 -0.270861 -5.498527 -2.654765 0.150046 -0.554802 3.644569 -9.047884 -5.989040 7.520991 -13.222176 5.436372 -26.914262 6.904037 2.263579 -54.404387 -7.225007 8.236307 26.535821 -48.287466 -20.181339 3.248255 -8.046937 -29.693574 23.991040 -2.372774 2.470115 58.237735 -2.221203 12.616175 -16.884278 34.966284 0.921296 14.155088 2.815830 -9.354569 
1.955829 0.156898 0.965238 -73.137128 -5.237785 91.431084 6.328225 -3.074430 -27.539239 -6.467491 13.374483 50.523957 -0.362414 10.055930 -6.706801 0.000000 -0.000000 0.000000 0.207035 4.137616 -13.476994 2.322277 11.232679 34.596716 -1.472075 0.090741 -21.744395 0.000000 -0.000000 0.000000 -4.046919 4.245466 11.863847 -1.215706 0.420279 -6.366358 -2.713991 0.454458 -0.287950 3.341828 -9.325006 -6.956117 7.265045 -12.766636 4.483546 -27.106086 8.913004 1.761800 -56.095032 -5.690895 8.067225 26.336609 -45.046302 -21.248575 5.351408 -6.914739 -31.576787 23.191528 -3.106354 2.315824 56.799192 -1.996397 13.310602 -14.044375 34.431901 1.663770 10.141242 3.819066 -11.748586 
1.946638 0.150459 0.966481 -77.290767 -5.486180 91.586546 6.478475 -4.147090 -28.708027 -7.247969 11.226356 46.747868 -0.275182 9.646209 -7.159179 0.000000 -0.000000 0.000000 -0.312482 4.547708 -12.999905 2.922581 13.765123 34.758785 -1.044108 1.055359 -21.989779 0.000000 -0.000000 0.000000 -3.793390 4.749606 11.914509 -1.522698 0.884275 -6.829915 -2.733040 0.636536 -0.074077 3.292693 -9.198157 -7.694381 7.034382 -12.622074 4.011516 -27.298528 10.103792 1.298525 -56.833550 -4.805598 7.975217 25.812167 -42.984436 -21.536502 6.708179 -6.137982 -32.700711 22.995692 -3.299936 2.032019 55.710823 -1.455672 13.715821 -12.451527 33.869506 1.649678 7.257784 4.433624 -13.021818 
1.933809 0.141891 0.964827 -82.708505 -5.661834 91.474405 7.060675 -5.480082 -29.501844 -7.996373 6.764194 41.427375 -0.554339 9.013970 -7.771958 0.000000 -0.000000 0.000000 -0.717182 5.568797 -12.632734 3.755342 16.915342 36.353887 -0.607337 1.820516 -23.021092 0.000000 -0.000000 0.000000 -3.460437 5.031992 12.389744 -1.801375 1.527033 -7.271124 -2.714277 0.844340 0.289248 3.458696 -8.756389 -8.728970 6.588070 -12.620667 3.441598 -27.729301 11.384653 0.628166 -57.440586 -3.731122 7.954624 24.855001 -40.228242 -21.810609 8.886821 -5.035448 -34.061082 23.080541 -3.156946 1.488327 54.053589 -0.294255 14.323713 -10.613870 33.066777 0.984121 2.542127 5.128238 -14.724905 
1.920302 0.133409 0.959117 -87.974121 -5.717436 91.028016 8.143786 -6.523845 -29.443719 -8.187947 1.472177 36.111376 -1.116012 8.865463 -8.489010 0.000000 -0.000000 0.000000 -0.697393 7.026213 -12.586709 4.694892 19.830832 39.647860 -0.357390 2.081894 -24.783022 0.000000 -0.000000 0.000000 -3.323905 4.997183 13.050100 -1.875030 2.140545 -7.212100 -2.566892 0.992624 0.612465 3.750471 -8.046250 -9.742463 6.116953 -12.763004 2.966797 -28.266720 11.982797 0.159306 -57.829752 -2.686875 8.022693 24.115341 -37.691797 -22.346971 11.063099 -3.705458 -34.801868 23.448066 -2.384046 0.919605 52.405324 1.205676 14.653210 -9.860454 31.999062 -0.266184 -1.153094 5.452579 -15.332235 
1.906487 0.124928 0.949494 -93.103913 -5.795462 90.326279 9.577775 -7.232899 -28.599622 -7.821430 -4.108132 31.132920 -1.774309 8.594588 -9.483872 0.000000 -0.000000 0.000000 -0.418968 8.776876 -12.772083 5.826433 22.355703 44.345620 -0.294221 2.092707 -26.994015 0.000000 -0.000000 0.000000 -3.576580 4.721537 13.848436 -1.810692 2.632880 -6.744750 -2.250120 1.038567 0.774463 4.077988 -7.133402 -10.549215 5.793823 -12.810355 2.418617 -28.758495 11.875226 0.010464 -58.132230 -1.533443 8.076006 23.944479 -35.786382 -23.288379 12.981513 -2.256139 -34.641499 23.850727 -0.966369 0.280596 51.121830 2.763765 14.545575 -10.356431 30.340552 -1.681113 -2.513350 5.421463 -13.856657 
1.892374 0.116456 0.936316 -98.043716 -5.906940 89.708714 11.235785 -7.440017 -27.669371 -7.064997 -9.259581 27.552116 -2.449909 7.993115 -10.568065 0.000000 -0.000000 0.000000 -0.175129 10.679333 -13.047659 7.203447 24.385550 49.498110 -0.483307 1.706082 -29.458056 0.000000 -0.000000 0.000000 -4.304847 4.188868 14.430144 -1.532245 2.920326 -5.952307 -1.833585 0.990539 0.932468 4.686372 -6.045458 -11.466955 5.227150 -12.805325 2.011922 -29.182228 11.701104 0.176769 -58.303795 -0.525702 8.081523 24.136115 -35.197586 -23.819677 14.479300 -1.148016 -34.423570 24.622157 0.560072 -0.178059 49.811655 4.990846 14.483767 -11.063377 29.616285 -2.996346 -3.388342 5.458020 -13.127414 
1.873809 0.105509 0.916394 -103.626275 -5.890803 89.271753 13.716640 -7.067218 -27.247737 -6.843002 -13.031473 26.442180 -3.129175 7.215177 -12.216356 0.000000 -0.000000 0.000000 -0.105572 12.850156 -13.173422 8.721604 26.109685 55.047807 -1.091977 1.101688 -32.952087 0.000000 -0.000000 0.000000 -5.353821 3.388466 14.881177 -0.956629 2.784895 -4.896038 -1.477775 0.830194 1.003611 5.744152 -4.558457 -12.839302 4.344520 -13.050515 2.074338 -29.461555 11.715148 0.605874 -58.212265 0.252614 7.811374 24.721379 -35.825275 -24.000723 14.484614 -0.975926 -34.976778 25.529165 1.844065 -0.642413 49.362742 7.614032 14.344520 -13.436810 29.955555 -5.139033 -3.348888 5.742985 -12.958960 
